<svg xmlns="http://www.w3.org/2000/svg" version="1.1" xmlns:xlink="http://www.w3.org/1999/xlink" xmlns:svgjs="http://svgjs.dev/svgjs" width="2000" height="2058" viewBox="0 0 2000 2058"><g transform="matrix(1,0,0,1,0.1449707809181291,0.8331983805667278)"><svg viewBox="0 0 240 247" data-background-color="#ffffff" preserveAspectRatio="xMidYMid meet" height="2058" width="2000" xmlns="http://www.w3.org/2000/svg" xmlns:xlink="http://www.w3.org/1999/xlink"><g id="tight-bounds" transform="matrix(1,0,0,1,-0.01739649371018004,-0.09999999999999432)"><svg viewBox="0 0 240.03478260869565 247.2" height="247.2" width="240.03478260869565"><g><svg viewBox="0 0 240.03478260869565 247.2" height="247.2" width="240.03478260869565"><g><svg viewBox="0 0 240.03478260869565 247.2" height="247.2" width="240.03478260869565"><g><svg viewBox="0 0 240.03478260869565 247.2" height="247.2" width="240.03478260869565"><g><svg viewBox="0 0 240.03478260869565 247.2" height="247.2" width="240.03478260869565"><g transform="matrix(1,0,0,1,0,0)"><svg width="240.03478260869565" viewBox="2.2699999809265137 -40.43000030517578 39.2599983215332 40.43000030517578" height="247.2" data-palette-color="#ff0000"><path d="M30.98-40.43L30.98-19.46 29.22-22.36 29.22-40.43 30.98-40.43ZM34.5-40.43L34.5-13.7 32.74-16.65 32.74-40.43 34.5-40.43ZM38.01-40.43L38.01-7.86 36.25-10.84 36.25-40.43 38.01-40.43ZM12.82 0L12.82-20.97 14.58-18.07 14.58 0 12.82 0ZM9.3 0L9.3-26.73 11.06-23.78 11.06 0 9.3 0ZM5.79 0L5.79-32.57 7.54-29.59 7.54 0 5.79 0ZM31.25 0L6.4-40.43 8.45-40.43 33.3 0 31.25 0ZM35.35 0L10.55-40.43 12.62-40.43 37.45 0 35.35 0ZM39.45 0L14.67-40.43 16.72-40.43 39.77-2.86 39.77-40.43 41.53-40.43 41.53 0Q41.53 0 39.45 0L39.45 0ZM27.12 0L4.03-37.57 4.03 0 2.27 0 2.27-40.43Q2.27-40.43 4.37-40.43L4.37-40.43 29.15 0 27.12 0Z" opacity="1" transform="matrix(1,0,0,1,0,0)" fill="#ff0000" class="undefined-text-0" data-fill-palette-color="primary" id="text-0"></path></svg></g></svg></g></svg></g></svg></g><g></g></svg></g><defs></defs></svg><rect width="240.03478260869565" height="247.2" fill="none" stroke="none" visibility="hidden"></rect></g></svg></g></svg>